<svg height="1024" node-id="1" sillyvg="true" template-height="1024" template-width="1024" version="1.1" viewBox="0 0 1024 1024" width="1024" xmlns="http://www.w3.org/2000/svg" xmlns:xlink="http://www.w3.org/1999/xlink"><defs node-id="163"><linearGradient gradientUnits="objectBoundingBox" id="linearGradient1" node-id="165" spreadMethod="pad" x1="-0.1358235" x2="0.5" y1="0.5" y2="0.47203198"><stop offset="0" stop-color="#98d6fa"/><stop offset="1" stop-color="#47b0f1"/></linearGradient><linearGradient gradientUnits="objectBoundingBox" id="linearGradient-1" node-id="5" spreadMethod="pad" x1="-0.1358235" x2="0.5" y1="0.5" y2="0.47203198"><stop offset="0" stop-color="#98d6fa"/><stop offset="1" stop-color="#47b0f1"/></linearGradient><linearGradient gradientUnits="objectBoundingBox" id="linearGradient-2" node-id="8" spreadMethod="pad" x1="-0.0000000000000009337728" x2="1" y1="-0.031055901" y2="-0.031055901"><stop offset="0" stop-color="#fff5de"/><stop offset="1" stop-color="#fbd2ac"/></linearGradient><linearGradient gradientUnits="objectBoundingBox" id="linearGradient-3" node-id="11" spreadMethod="pad" x1="-0.1358235" x2="0.5" y1="0.5" y2="0.47628444"><stop offset="0" stop-color="#98d6fa"/><stop offset="1" stop-color="#47b0f1"/></linearGradient><linearGradient gradientUnits="objectBoundingBox" id="linearGradient2" node-id="190" spreadMethod="pad" x1="-0.1358235" x2="0.5" y1="0.5" y2="0.47629464"><stop offset="0" stop-color="#98d6fa"/><stop offset="1" stop-color="#47b0f1"/></linearGradient><linearGradient gradientUnits="objectBoundingBox" id="linearGradient-4" node-id="14" spreadMethod="pad" x1="-0.1358235" x2="0.5" y1="0.5" y2="0.47629464"><stop offset="0" stop-color="#98d6fa"/><stop offset="1" stop-color="#47b0f1"/></linearGradient><linearGradient gradientUnits="objectBoundingBox" id="linearGradient-5" node-id="17" spreadMethod="pad" x1="-0.1358235" x2="0.5" y1="0.5" y2="0.47629884"><stop offset="0" stop-color="#98d6fa"/><stop offset="1" stop-color="#47b0f1"/></linearGradient><linearGradient gradientUnits="objectBoundingBox" id="linearGradient-6" node-id="20" spreadMethod="pad" x1="-0.10614049" x2="0.5" y1="0.8700848" y2="0.30481097"><stop offset="0" stop-color="#98d6fa"/><stop offset="1" stop-color="#47b0f1"/></linearGradient><linearGradient gradientUnits="objectBoundingBox" id="linearGradient-7" node-id="23" spreadMethod="pad" x1="-0.54080534" x2="0.5" y1="0.8700848" y2="0.30481097"><stop offset="0" stop-color="#98d6fa"/><stop offset="1" stop-color="#47b0f1"/></linearGradient><linearGradient gradientUnits="objectBoundingBox" id="linearGradient-8" node-id="26" spreadMethod="pad" x1="-0.54080534" x2="0.5" y1="0.83567786" y2="0.3229578"><stop offset="0" stop-color="#98d6fa"/><stop offset="1" stop-color="#47b0f1"/></linearGradient><linearGradient gradientUnits="objectBoundingBox" id="linearGradient-9" node-id="29" spreadMethod="pad" x1="-0.1358235" x2="0.5" y1="0.5" y2="0.4342302"><stop offset="0" stop-color="#98d6fa"/><stop offset="1" stop-color="#47b0f1"/></linearGradient><linearGradient gradientUnits="objectBoundingBox" id="linearGradient3" node-id="233" spreadMethod="pad" x1="0.43139893" x2="0.60336566" y1="-0.06451613" y2="0"><stop offset="0.031572677" stop-color="#afdef9"/><stop offset="1" stop-color="#7cc9f9"/></linearGradient><linearGradient gradientUnits="objectBoundingBox" id="linearGradient-11" node-id="35" spreadMethod="pad" x1="0.05920258" x2="0.5996637" y1="0.6085715" y2="0.37054223"><stop offset="0" stop-color="#98d6fa"/><stop offset="1" stop-color="#47b0f1"/></linearGradient><linearGradient gradientUnits="objectBoundingBox" id="linearGradient-12" node-id="38" spreadMethod="pad" x1="0.44492638" x2="0.58298296" y1="-0.06451613" y2="0"><stop offset="0.031572677" stop-color="#afdef9"/><stop offset="1" stop-color="#7cc9f9"/></linearGradient><linearGradient gradientUnits="objectBoundingBox" id="linearGradient-13" node-id="41" spreadMethod="pad" x1="0.28403884" x2="0.5" y1="0.8700848" y2="0.30481097"><stop offset="0" stop-color="#98d6fa"/><stop offset="1" stop-color="#47b0f1"/></linearGradient><linearGradient gradientUnits="objectBoundingBox" id="linearGradient-10" node-id="32" spreadMethod="pad" x1="0.43139893" x2="0.60336566" y1="-0.06451613" y2="0"><stop offset="0.031572677" stop-color="#afdef9"/><stop offset="1" stop-color="#7cc9f9"/></linearGradient><linearGradient gradientUnits="objectBoundingBox" id="linearGradient-14" node-id="44" spreadMethod="pad" x1="0.8017669" x2="0.40161258" y1="0.7812446" y2="0.012035675"><stop offset="0" stop-color="#98d6fa"/><stop offset="1" stop-color="#47b0f1"/></linearGradient><linearGradient gradientUnits="objectBoundingBox" id="linearGradient-15" node-id="47" spreadMethod="pad" x1="0.1696366" x2="0.73110634" y1="0.77603304" y2="0.27310416"><stop offset="0" stop-color="#98d6fa"/><stop offset="1" stop-color="#47b0f1"/></linearGradient><linearGradient gradientUnits="objectBoundingBox" id="linearGradient-16" node-id="50" spreadMethod="pad" x1="0" x2="0.849776" y1="0.6687911" y2="0.36125568"><stop offset="0" stop-color="#98d6fa"/><stop offset="1" stop-color="#47b0f1"/></linearGradient><linearGradient gradientUnits="objectBoundingBox" id="linearGradient-17" node-id="53" spreadMethod="pad" x1="0" x2="0.849776" y1="0.6436173" y2="0.38194832"><stop offset="0" stop-color="#98d6fa"/><stop offset="1" stop-color="#47b0f1"/></linearGradient><linearGradient gradientUnits="objectBoundingBox" id="linearGradient-18" node-id="56" spreadMethod="pad" x1="0" x2="0.849776" y1="0.63935465" y2="0.38545215"><stop offset="0" stop-color="#98d6fa"/><stop offset="1" stop-color="#47b0f1"/></linearGradient><linearGradient gradientUnits="objectBoundingBox" id="linearGradient-19" node-id="59" spreadMethod="pad" x1="0.22355923" x2="0.5" y1="-0.089142084" y2="0.77381057"><stop offset="0" stop-color="#98d6fa"/><stop offset="1" stop-color="#47b0f1"/></linearGradient><linearGradient gradientUnits="objectBoundingBox" id="linearGradient-20" node-id="62" spreadMethod="pad" x1="0.45362788" x2="0.5" y1="-0.11452465" y2="0.7856074"><stop offset="0" stop-color="#98d6fa"/><stop offset="1" stop-color="#47b0f1"/></linearGradient><linearGradient gradientUnits="objectBoundingBox" id="linearGradient-21" node-id="65" spreadMethod="pad" x1="0.47746408" x2="0.5" y1="-0.11452465" y2="0.7856074"><stop offset="0" stop-color="#98d6fa"/><stop offset="1" stop-color="#47b0f1"/></linearGradient><linearGradient gradientUnits="objectBoundingBox" id="linearGradient-22" node-id="68" spreadMethod="pad" x1="0.4389308" x2="0.5" y1="-0.11452465" y2="0.7856074"><stop offset="0" stop-color="#98d6fa"/><stop offset="1" stop-color="#47b0f1"/></linearGradient><linearGradient gradientUnits="objectBoundingBox" id="linearGradient-23" node-id="71" spreadMethod="pad" x1="0" x2="1.1322753" y1="0.77603304" y2="0.77603304"><stop offset="0" stop-color="#98d6fa"/><stop offset="1" stop-color="#47b0f1"/></linearGradient><linearGradient gradientUnits="objectBoundingBox" id="linearGradient-24" node-id="74" spreadMethod="pad" x1="0.13965732" x2="0.875197" y1="0.07491416" y2="1.0750235"><stop offset="0" stop-color="#ffb859"/><stop offset="1" stop-color="#f97b61"/></linearGradient><linearGradient gradientUnits="objectBoundingBox" id="linearGradient-25" node-id="77" spreadMethod="pad" x1="0.020751633" x2="0.5" y1="0.8700848" y2="0.30481097"><stop offset="0" stop-color="#98d6fa"/><stop offset="1" stop-color="#47b0f1"/></linearGradient><linearGradient gradientUnits="objectBoundingBox" id="linearGradient-26" node-id="80" spreadMethod="pad" x1="1" x2="0.005814659" y1="-0.029698754" y2="-0.029698754"><stop offset="0" stop-color="#f97b61"/><stop offset="1" stop-color="#ffb859"/></linearGradient><linearGradient gradientUnits="objectBoundingBox" id="linearGradient-27" node-id="83" spreadMethod="pad" x1="1" x2="0.005814659" y1="-0.029698754" y2="-0.029698754"><stop offset="0" stop-color="#f97b61"/><stop offset="1" stop-color="#ffb859"/></linearGradient><linearGradient gradientUnits="objectBoundingBox" id="linearGradient-28" node-id="86" spreadMethod="pad" x1="0" x2="0.9941853" y1="-0.029698754" y2="-0.029698754"><stop offset="0" stop-color="#ffb859"/><stop offset="1" stop-color="#f97b61"/></linearGradient><linearGradient gradientUnits="objectBoundingBox" id="linearGradient-29" node-id="89" spreadMethod="pad" x1="0" x2="0.9941853" y1="-0.029698754" y2="-0.029698754"><stop offset="0" stop-color="#ffb859"/><stop offset="1" stop-color="#f97b61"/></linearGradient><linearGradient gradientUnits="objectBoundingBox" id="linearGradient-30" node-id="92" spreadMethod="pad" x1="0.86275023" x2="-0.000000000000027057475" y1="-0.028050492" y2="-0.028050492"><stop offset="0" stop-color="#1d181c"/><stop offset="0.3" stop-color="#2c2422"/><stop offset="0.5" stop-color="#42352c"/><stop offset="0.7" stop-color="#57352c"/><stop offset="1" stop-color="#923629"/></linearGradient><linearGradient gradientUnits="objectBoundingBox" id="linearGradient4" node-id="372" spreadMethod="pad" x1="0.86275023" x2="-0.000000000000027057475" y1="-0.028050492" y2="-0.028050492"><stop offset="0" stop-color="#1d181c"/><stop offset="0.3" stop-color="#2c2422"/><stop offset="0.5" stop-color="#42352c"/><stop offset="0.7" stop-color="#57352c"/><stop offset="1" stop-color="#923629"/></linearGradient><linearGradient gradientUnits="objectBoundingBox" id="linearGradient-31" node-id="98" spreadMethod="pad" x1="0.13724977" x2="1" y1="-0.028050492" y2="-0.028050492"><stop offset="0" stop-color="#1d181c"/><stop offset="0.3" stop-color="#2c2422"/><stop offset="0.5" stop-color="#42352c"/><stop offset="0.7" stop-color="#57352c"/><stop offset="1" stop-color="#923629"/></linearGradient><linearGradient gradientUnits="objectBoundingBox" id="linearGradient-32" node-id="104" spreadMethod="pad" x1="-0.47868195" x2="0.5" y1="0.8700848" y2="0.30481097"><stop offset="0" stop-color="#98d6fa"/><stop offset="1" stop-color="#47b0f1"/></linearGradient><linearGradient gradientUnits="objectBoundingBox" id="linearGradient-33" node-id="107" spreadMethod="pad" x1="-0.3740159" x2="0.8999568" y1="0.46959418" y2="0.5128999"><stop offset="0" stop-color="#98d6fa"/><stop offset="1" stop-color="#47b0f1"/></linearGradient></defs><g node-id="408"><path d="M 0.00 0.00 L 1024.00 0.00 L 1024.00 1024.00 L 0.00 1024.00 Z" fill="#ffffff" fill-opacity="0" fill-rule="evenodd" group-id="1" id="矩形" node-id="111" stroke="none" target-height="1024" target-width="1024" target-x="0" target-y="0"/></g><g node-id="409"><g node-id="415"><path d="M 76.80 581.77 C 69.12 548.67 19.18 333.15 160.40 303.51 C 301.62 273.88 385.05 308.39 447.10 248.05 C 509.15 187.71 524.62 197.61 575.59 201.60 C 626.56 205.60 685.63 162.04 705.47 148.96 C 725.32 135.87 904.53 51.69 950.35 303.51 C 957.59 412.38 963.61 530.50 912.91 575.24 C 862.22 619.98 913.84 660.15 950.35 664.62 C 986.86 669.08 933.28 745.53 848.95 778.90 C 792.88 804.06 430.19 876.18 212.99 802.04 C 108.11 757.12 84.47 614.86 76.80 581.77 Z" fill="#47b0f1" fill-opacity="0.05" fill-rule="nonzero" group-id="2,8" id="路径-58" node-id="113" stroke="none" target-height="824.487" target-width="967.6862" target-x="19.17688" target-y="51.693367"/></g><g node-id="416"><path d="M 158.00 329.00 L 158.00 329.15 C 161.42 329.85 164.00 332.87 164.00 336.50 L 164.00 337.50 C 164.00 341.64 160.64 345.00 156.50 345.00 L 77.50 345.00 C 73.36 345.00 70.00 341.64 70.00 337.50 L 70.00 336.50 C 70.00 332.36 73.36 329.00 77.50 329.00 L 109.00 329.00 C 112.79 329.00 115.87 326.00 116.00 322.24 L 116.00 322.00 C 116.00 318.21 113.00 315.13 109.24 315.00 L 109.00 315.00 L 106.00 315.00 L 106.00 314.85 C 102.58 314.16 100.00 311.13 100.00 307.50 L 100.00 306.50 C 100.00 302.36 103.36 299.00 107.50 299.00 L 186.50 299.00 C 190.64 299.00 194.00 302.36 194.00 306.50 L 194.00 307.50 C 194.00 311.64 190.64 315.00 186.50 315.00 L 155.00 315.00 C 151.21 315.00 148.13 318.00 148.00 321.76 L 148.00 322.00 C 148.00 325.79 151.00 328.87 154.76 329.00 L 155.00 329.00 L 158.00 329.00 Z" fill="url(#linearGradient1)" fill-opacity="0.1" fill-rule="nonzero" group-id="2,9" id="形状结合" node-id="114" stroke="none" target-height="46" target-width="124" target-x="70" target-y="299"/></g><g node-id="417"><path d="M 858.00 159.00 L 858.00 159.15 C 861.42 159.85 864.00 162.87 864.00 166.50 L 864.00 167.50 C 864.00 171.64 860.64 175.00 856.50 175.00 L 777.50 175.00 C 773.36 175.00 770.00 171.64 770.00 167.50 L 770.00 166.50 C 770.00 162.36 773.36 159.00 777.50 159.00 L 809.00 159.00 C 812.79 159.00 815.87 156.00 816.00 152.24 L 816.00 152.00 C 816.00 148.21 813.00 145.13 809.24 145.00 L 809.00 145.00 L 806.00 145.00 L 806.00 144.85 C 802.58 144.16 800.00 141.13 800.00 137.50 L 800.00 136.50 C 800.00 132.36 803.36 129.00 807.50 129.00 L 886.50 129.00 C 890.64 129.00 894.00 132.36 894.00 136.50 L 894.00 137.50 C 894.00 141.64 890.64 145.00 886.50 145.00 L 855.00 145.00 C 851.21 145.00 848.13 148.00 848.00 151.76 L 848.00 152.00 C 848.00 155.79 851.00 158.87 854.76 159.00 L 855.00 159.00 L 858.00 159.00 Z" fill="url(#linearGradient-1)" fill-opacity="0.1" fill-rule="nonzero" group-id="2,10" id="形状结合" node-id="115" stroke="none" target-height="46" target-width="124" target-x="770" target-y="129"/></g><path d="M 514.52 712.00 C 645.62 712.00 763.78 722.79 846.30 740.01 C 927.06 740.66 992.00 765.03 992.00 795.00 C 992.00 819.23 949.55 839.80 890.61 847.13 C 877.64 850.88 863.20 854.43 847.45 857.75 C 847.82 859.81 848.00 861.90 848.00 864.00 C 848.00 915.91 735.18 958.00 596.00 958.00 C 471.35 958.00 367.83 924.24 347.59 879.89 C 180.20 867.13 62.00 835.72 62.00 799.00 C 62.00 750.95 264.37 712.00 514.52 712.00 Z" fill="url(#linearGradient-2)" fill-rule="nonzero" group-id="2" id="形状结合" node-id="116" stroke="none" target-height="246" target-width="930" target-x="62" target-y="712"/><g node-id="418"><path d="M 686.61 226.65 L 686.61 226.55 C 681.28 211.51 663.91 204.44 649.17 206.62 C 660.10 199.83 678.14 198.02 686.61 208.44 L 686.61 208.53 C 695.07 198.20 713.20 199.92 724.04 206.71 C 709.32 204.63 691.95 211.70 686.61 226.64 L 686.61 226.65 Z" fill="url(#linearGradient-3)" fill-rule="nonzero" group-id="2,11" id="路径" node-id="118" stroke="none" target-height="28.631622" target-width="74.86871" target-x="649.17413" target-y="198.01791"/><path d="M 770.03 214.11 L 770.03 214.04 C 766.33 203.62 754.30 198.73 744.09 200.23 C 751.66 195.52 764.16 194.27 770.03 201.49 L 770.03 201.55 C 775.90 194.39 788.47 195.59 795.98 200.29 C 785.77 198.85 773.74 203.75 770.03 214.11 L 770.03 214.11 Z" fill="url(#linearGradient2)" fill-rule="nonzero" group-id="2,11" id="路径" node-id="119" stroke="none" target-height="19.842773" target-width="51.89435" target-x="744.0873" target-y="194.26585"/><path d="M 735.24 179.63 L 735.24 179.57 C 731.54 169.14 719.51 164.25 709.29 165.75 C 716.87 161.04 729.37 159.79 735.24 167.01 L 735.24 167.07 C 741.11 159.92 753.67 161.11 761.19 165.82 C 750.97 164.37 738.95 169.27 735.24 179.63 L 735.24 179.63 Z" fill="url(#linearGradient-4)" fill-rule="nonzero" group-id="2,11" id="路径" node-id="120" stroke="none" target-height="19.842773" target-width="51.89435" target-x="709.2949" target-y="159.78786"/><path d="M 840.72 220.07 L 840.72 220.03 C 838.16 212.80 829.82 209.40 822.74 210.45 C 827.99 207.19 836.65 206.31 840.72 211.32 L 840.72 211.36 C 844.80 206.40 853.50 207.23 858.71 210.49 C 851.63 209.49 843.29 212.89 840.72 220.07 Z" fill="url(#linearGradient-5)" fill-rule="nonzero" group-id="2,11" id="路径" node-id="121" stroke="none" target-height="13.754578" target-width="35.97455" target-x="822.7358" target-y="206.31422"/></g></g><path d="M 101.00 476.00 L 101.00 475.85 C 97.58 475.16 95.00 472.13 95.00 468.50 L 95.00 467.50 C 95.00 463.36 98.36 460.00 102.50 460.00 L 181.50 460.00 C 181.93 460.00 182.35 460.04 182.76 460.11 L 316.07 460.11 L 316.07 502.47 L 183.38 502.47 C 175.35 502.47 169.84 503.91 166.82 506.77 C 162.95 510.50 161.02 516.24 161.02 523.98 L 161.02 578.60 C 161.02 583.76 163.03 588.28 167.04 592.15 C 170.91 595.73 176.36 597.53 183.38 597.53 L 253.92 597.53 C 273.13 597.53 288.76 603.55 300.80 615.59 C 310.41 625.34 315.21 636.95 315.21 650.43 L 315.21 739.25 C 315.21 755.59 310.34 767.70 300.59 775.59 C 289.98 784.34 277.43 788.71 262.95 788.71 L 153.58 788.71 C 152.92 788.90 152.22 789.00 151.50 789.00 L 72.50 789.00 C 68.36 789.00 65.00 785.64 65.00 781.50 L 65.00 780.50 C 65.00 776.36 68.36 773.00 72.50 773.00 L 104.00 773.00 C 107.79 773.00 110.87 770.00 111.00 766.24 L 111.00 766.00 C 111.00 764.51 110.54 763.13 109.75 762.00 L 102.50 762.00 C 98.36 762.00 95.00 758.64 95.00 754.50 L 95.00 753.50 C 95.00 749.36 98.36 746.00 102.50 746.00 L 181.50 746.00 C 182.28 746.00 183.04 746.12 183.75 746.34 L 250.70 746.34 C 263.74 746.34 270.27 738.53 270.27 722.90 L 270.27 660.97 C 270.27 646.92 263.74 639.89 250.70 639.89 L 175.00 639.89 C 156.22 639.89 141.02 633.94 129.41 622.04 C 120.52 613.01 116.07 600.18 116.07 583.55 L 116.07 516.02 C 116.07 512.52 116.28 509.18 116.69 506.00 L 72.50 506.00 C 68.36 506.00 65.00 502.64 65.00 498.50 L 65.00 497.50 C 65.00 493.36 68.36 490.00 72.50 490.00 L 104.00 490.00 C 107.79 490.00 110.87 487.00 111.00 483.24 L 111.00 483.00 C 111.00 479.21 108.00 476.13 104.24 476.00 L 104.00 476.00 L 101.00 476.00 Z" fill="url(#linearGradient-6)" fill-rule="nonzero" id="形状结合" node-id="122" stroke="none" target-height="329" target-width="251.07172" target-x="65" target-y="460"/><path d="M 490.07 509.11 C 567.39 509.11 630.07 571.79 630.07 649.11 C 630.07 726.43 567.39 789.11 490.07 789.11 C 412.75 789.11 350.07 726.43 350.07 649.11 C 350.07 571.79 412.75 509.11 490.07 509.11 Z M 490.07 553.11 C 437.05 553.11 394.07 596.09 394.07 649.11 C 394.07 702.13 437.05 745.11 490.07 745.11 C 543.09 745.11 586.07 702.13 586.07 649.11 C 586.07 596.09 543.09 553.11 490.07 553.11 Z" fill="url(#linearGradient-7)" fill-rule="nonzero" id="椭圆形" node-id="123" stroke="none" target-height="279.99997" target-width="280" target-x="350.07172" target-y="509.10623"/><path d="M 889.00 757.00 L 889.00 757.15 C 892.42 757.85 895.00 760.87 895.00 764.50 L 895.00 765.50 C 895.00 769.64 891.64 773.00 887.50 773.00 L 850.05 773.00 C 830.61 783.22 808.48 789.00 785.00 789.00 C 707.68 789.00 645.00 726.32 645.00 649.00 C 645.00 571.68 707.68 509.00 785.00 509.00 C 807.25 509.00 828.29 514.19 846.97 523.43 C 848.34 521.94 850.31 521.00 852.50 521.00 L 931.50 521.00 C 935.64 521.00 939.00 524.36 939.00 528.50 L 939.00 529.50 C 939.00 533.64 935.64 537.00 931.50 537.00 L 900.00 537.00 C 896.21 537.00 893.13 540.00 893.00 543.76 L 893.00 544.00 C 893.00 547.79 896.00 550.87 899.76 551.00 L 900.00 551.00 L 903.00 551.00 L 903.00 551.15 C 906.42 551.85 909.00 554.87 909.00 558.50 L 909.00 559.50 C 909.00 563.64 905.64 567.00 901.50 567.00 L 898.48 567.00 C 915.17 590.05 925.00 618.37 925.00 649.00 C 925.00 677.88 916.26 704.71 901.27 727.00 L 917.50 727.00 C 921.64 727.00 925.00 730.36 925.00 734.50 L 925.00 735.50 C 925.00 739.64 921.64 743.00 917.50 743.00 L 888.75 743.00 C 885.79 746.27 882.67 749.40 879.41 752.37 C 880.36 755.00 882.83 756.90 885.76 757.00 L 886.00 757.00 L 889.00 757.00 Z M 785.00 553.00 C 731.98 553.00 689.00 595.98 689.00 649.00 C 689.00 702.02 731.98 745.00 785.00 745.00 C 801.71 745.00 817.43 740.73 831.11 733.22 C 831.72 729.69 834.79 727.00 838.50 727.00 L 840.97 727.00 C 865.21 709.58 881.00 681.13 881.00 649.00 C 881.00 614.27 862.56 583.86 834.94 567.00 L 822.50 567.00 C 818.36 567.00 815.00 563.64 815.00 559.50 L 815.00 558.50 C 815.00 558.26 815.01 558.03 815.03 557.79 C 805.59 554.68 795.49 553.00 785.00 553.00 Z" fill="url(#linearGradient-8)" fill-rule="nonzero" id="形状结合" node-id="124" stroke="none" target-height="280" target-width="294" target-x="645" target-y="509"/><g node-id="410"><g node-id="419"><path d="M 314.74 648.63 C 288.26 636.73 276.37 642.57 279.06 666.16 C 280.60 673.48 283.36 678.05 287.36 679.87 C 297.76 692.55 303.26 702.70 303.86 710.34 C 304.76 721.80 313.67 734.78 336.00 727.36 C 350.88 722.42 361.10 730.70 366.65 752.22 C 383.43 774.46 412.90 783.34 455.07 778.87 C 497.23 774.40 494.54 754.95 447.02 720.54 C 434.09 715.44 424.23 712.28 417.42 711.08 C 410.61 709.88 407.27 702.45 407.40 688.79 C 407.43 680.25 401.24 674.00 388.84 670.07 C 376.43 666.13 371.24 659.88 373.27 651.32 C 365.05 639.21 355.24 637.48 343.84 646.13 C 332.44 654.79 322.74 655.62 314.74 648.63 Z" fill="url(#linearGradient-9)" fill-rule="nonzero" group-id="3,12" id="路径-61" node-id="126" stroke="none" target-height="146.6106" target-width="220.85718" target-x="276.3695" target-y="636.72845"/></g><g node-id="420"><path d="M 313.50 660.87 L 352.61 686.98 L 352.59 686.88 C 350.60 676.46 348.23 668.02 345.46 661.54 C 341.36 651.92 354.05 677.57 354.21 688.05 L 386.82 709.81 C 386.79 709.77 386.76 709.73 386.73 709.68 C 387.63 695.68 387.26 685.90 385.64 680.35 C 387.82 683.26 390.14 704.15 388.85 711.17 L 418.84 731.19 C 418.67 730.99 418.57 730.85 418.57 730.85 C 418.57 730.85 420.11 719.28 418.75 713.46 C 420.10 715.10 421.00 727.19 420.61 732.37 L 445.36 748.89 L 442.22 752.02 L 416.67 733.93 C 409.77 738.01 400.30 738.62 395.72 738.20 C 404.18 737.42 410.37 735.48 414.27 732.37 C 414.96 732.91 415.63 733.34 416.29 733.66 L 344.34 682.71 C 344.50 682.88 344.65 683.07 344.79 683.26 C 334.12 684.76 324.55 684.12 316.08 681.33 C 316.76 679.98 328.03 685.25 342.90 681.69 L 313.50 660.87 Z M 346.99 723.14 C 355.53 723.39 366.64 718.45 380.34 708.34 C 380.82 708.89 381.42 709.49 382.14 710.14 C 369.20 720.36 355.31 724.38 346.99 723.14 Z" fill="url(#linearGradient3)" fill-rule="nonzero" group-id="3,13" id="形状结合" node-id="127" stroke="none" target-height="100.102844" target-width="131.86035" target-x="313.49927" target-y="651.9185"/></g><path d="M 343.42 592.63 C 317.36 574.89 305.27 579.35 307.14 606.01 C 312.15 625.10 315.44 637.87 313.80 649.57 C 312.15 661.28 317.29 683.40 343.42 692.47 C 360.84 698.52 365.73 707.11 358.10 718.23 C 354.27 735.30 375.39 747.56 421.48 754.99 C 490.61 766.15 474.14 740.52 456.36 712.74 C 443.51 699.87 441.78 692.01 441.78 682.18 C 441.78 672.34 451.20 656.26 424.16 649.57 C 412.28 646.87 406.05 635.00 405.48 613.95 C 403.61 603.36 392.27 600.72 371.47 606.01 C 362.22 607.79 352.87 603.33 343.42 592.63 Z" fill="url(#linearGradient-11)" fill-rule="nonzero" group-id="3" id="路径-65" node-id="128" stroke="none" target-height="191.2525" target-width="185.34143" target-x="305.26526" target-y="574.89294"/><g node-id="421"><path d="M 331.57 606.78 L 360.28 643.28 L 360.36 643.08 C 363.50 635.47 364.11 627.79 362.19 620.04 L 362.18 619.99 L 362.24 620.19 C 364.15 626.04 367.65 633.04 361.69 645.08 L 386.02 676.01 L 386.21 675.74 C 391.03 668.87 393.44 659.85 393.44 648.68 C 394.55 652.16 394.58 668.13 387.64 678.06 L 409.19 705.47 C 410.55 703.35 413.96 697.40 413.96 690.76 C 414.68 695.34 414.73 701.47 410.80 707.51 L 442.61 747.96 L 437.57 747.96 L 406.82 707.00 C 391.92 713.36 383.57 710.70 379.43 708.83 C 387.50 710.81 396.07 709.45 405.12 704.75 L 381.74 673.60 C 381.86 673.84 382.00 674.09 382.14 674.34 C 366.58 679.79 350.42 680.44 342.96 676.56 C 350.95 679.57 363.64 678.07 381.03 672.06 L 380.67 672.18 L 354.61 637.47 C 354.67 637.61 354.71 637.75 354.76 637.89 C 343.31 638.60 334.17 634.95 327.34 626.96 C 328.42 625.91 335.73 636.53 353.38 635.84 L 331.57 606.78 Z" fill="url(#linearGradient-12)" fill-rule="nonzero" group-id="3,14" id="形状结合" node-id="129" stroke="none" target-height="141.18231" target-width="115.27261" target-x="327.34204" target-y="606.7801"/></g><path d="M 432.24 593.82 C 442.31 579.84 451.31 581.26 459.26 598.08 C 463.12 612.62 457.03 621.86 476.94 628.47 C 490.22 632.87 492.23 642.09 482.97 656.13 C 479.10 664.97 481.96 670.61 491.54 673.07 C 501.12 675.53 499.97 685.31 488.08 702.42 C 483.96 711.79 483.96 718.06 488.08 721.21 C 494.26 725.95 506.14 740.13 491.54 767.71 C 476.94 795.29 442.55 773.87 437.40 760.91 C 432.24 747.94 442.55 730.08 437.40 721.21 C 432.24 712.35 402.18 709.30 410.21 682.72 C 416.90 671.84 426.20 668.70 416.86 650.18 C 407.52 631.66 405.15 639.10 416.86 620.86 C 421.98 615.62 427.10 606.60 432.24 593.82 Z" fill="url(#linearGradient-13)" fill-rule="nonzero" group-id="3" id="路径-96" node-id="130" stroke="none" target-height="215.4505" target-width="103.951385" target-x="402.18378" target-y="579.84076"/><path d="M 445.94 617.93 L 455.13 664.04 L 455.19 663.96 C 461.15 655.19 465.45 647.54 468.07 641.01 C 471.97 631.30 462.80 658.41 455.51 665.94 L 463.18 704.38 C 463.19 704.33 463.20 704.28 463.20 704.23 C 473.75 694.96 480.40 687.79 483.18 682.72 C 482.66 686.32 469.53 702.73 463.66 706.78 L 470.71 742.14 C 470.73 741.88 470.75 741.71 470.75 741.71 C 470.75 741.71 480.02 734.62 483.18 729.53 C 482.97 731.65 475.06 740.84 471.12 744.23 L 476.94 773.41 L 472.51 773.41 L 467.23 742.54 C 459.47 740.55 452.34 734.29 449.40 730.75 C 455.94 736.18 461.68 739.18 466.64 739.74 C 466.74 740.62 466.91 741.39 467.15 742.08 L 452.31 655.18 C 452.29 655.42 452.27 655.65 452.23 655.89 C 443.63 649.41 437.32 642.19 433.30 634.22 C 434.73 633.75 438.98 645.44 452.01 653.45 L 445.94 617.93 Z M 425.59 685.64 C 431.45 691.85 442.80 696.23 459.64 698.76 C 459.58 699.49 459.58 700.34 459.64 701.30 C 443.26 699.38 430.59 692.40 425.59 685.64 Z" fill="url(#linearGradient-10)" fill-rule="nonzero" group-id="3" id="形状结合" node-id="131" stroke="none" target-height="155.4748" target-width="57.58911" target-x="425.58826" target-y="617.93146"/></g><g node-id="411"><path d="M 917.40 807.52 C 920.30 785.31 912.84 773.35 895.00 771.63 C 919.14 769.33 935.12 784.02 935.38 807.52 C 930.38 807.69 924.38 807.69 917.40 807.52 Z" fill="url(#linearGradient-14)" fill-rule="nonzero" group-id="4" id="路径-38" node-id="133" stroke="none" target-height="38.36566" target-width="40.382324" target-x="895" target-y="769.3252"/><path d="M 929.12 807.65 C 933.83 785.24 928.04 768.69 911.73 758.00 C 932.55 764.57 947.51 774.44 952.37 807.65 C 946.02 808.12 938.27 808.12 929.12 807.65 Z" fill="url(#linearGradient-15)" fill-rule="nonzero" group-id="4" id="路径-39" node-id="134" stroke="none" target-height="50.117554" target-width="40.642517" target-x="911.73065" target-y="758"/><path d="M 956.07 808.00 C 953.98 786.70 961.63 774.50 979.00 771.39 C 962.89 770.99 944.91 769.91 932.05 808.00 C 942.95 807.65 950.96 807.65 956.07 808.00 Z" fill="url(#linearGradient-16)" fill-rule="nonzero" group-id="4" id="路径-40" node-id="135" stroke="none" target-height="38.09436" target-width="46.94806" target-x="932.05194" target-y="769.90564"/><path d="M 906.41 822.00 C 923.26 822.00 936.00 822.41 936.00 806.61 C 936.00 790.81 922.34 778.00 905.50 778.00 C 888.66 778.00 875.00 790.81 875.00 806.61 C 875.00 822.41 889.57 822.00 906.41 822.00 Z" fill="url(#linearGradient-17)" fill-rule="nonzero" group-id="4" id="椭圆形" node-id="136" stroke="none" target-height="44.408752" target-width="61" target-x="875" target-y="778"/><path d="M 939.57 822.00 C 950.06 822.00 958.00 822.25 958.00 812.56 C 958.00 802.86 949.49 795.00 939.00 795.00 C 928.51 795.00 920.00 802.86 920.00 812.56 C 920.00 822.25 929.07 822.00 939.57 822.00 Z" fill="url(#linearGradient-18)" fill-rule="nonzero" group-id="4" id="椭圆形备份-6" node-id="137" stroke="none" target-height="27.250854" target-width="38" target-x="920" target-y="795"/></g><g node-id="412"><path d="M 111.91 785.63 C 110.23 777.99 105.32 772.65 97.20 769.60 C 87.92 766.62 82.83 763.07 88.64 760.50 C 93.54 760.11 104.00 756.29 111.91 779.11 C 112.46 781.32 112.46 783.49 111.91 785.63 Z" fill="url(#linearGradient-19)" fill-rule="nonzero" group-id="5" id="路径-43" node-id="139" stroke="none" target-height="29.334045" target-width="29.622185" target-x="82.83299" target-y="756.2946"/><path d="M 112.32 786.84 C 107.43 768.60 101.88 755.28 95.66 746.88 C 91.10 741.15 91.42 732.94 95.66 731.08 C 100.01 730.60 108.01 729.85 114.04 761.29 C 114.43 763.45 116.55 776.11 114.04 784.27 C 113.67 785.39 113.10 786.25 112.32 786.84 Z" fill="url(#linearGradient-20)" fill-rule="nonzero" group-id="5" id="路径-44" node-id="140" stroke="none" target-height="56.99005" target-width="25.45327" target-x="91.09684" target-y="729.8507"/><path d="M 113.45 782.72 C 115.66 774.56 115.38 763.91 112.60 750.77 C 108.36 738.03 101.13 722.36 114.32 722.00 C 119.67 722.73 126.13 728.34 123.69 756.29 C 122.20 767.57 119.61 774.24 116.90 782.72 C 115.95 783.25 114.80 783.25 113.45 782.72 Z" fill="url(#linearGradient-21)" fill-rule="nonzero" group-id="5" id="路径-45" node-id="141" stroke="none" target-height="61.249207" target-width="25.003365" target-x="101.12811" target-y="722"/><path d="M 116.03 785.89 C 115.14 762.81 119.37 746.24 128.70 736.19 C 131.22 732.84 140.81 729.69 140.78 740.22 C 139.77 744.74 137.63 754.41 125.28 769.15 C 121.21 774.47 118.54 782.24 118.51 784.07 C 118.49 785.28 117.67 785.89 116.03 785.89 Z" fill="url(#linearGradient-22)" fill-rule="nonzero" group-id="5" id="路径-46" node-id="142" stroke="none" target-height="56.19867" target-width="25.667992" target-x="115.143654" target-y="729.692"/><path d="M 68.00 788.94 C 77.24 787.22 82.34 785.75 83.29 784.55 C 84.72 782.75 97.30 775.01 105.14 781.53 C 106.85 779.33 112.32 777.63 115.46 781.53 C 116.89 775.37 125.83 771.42 129.72 772.06 C 134.10 771.72 147.03 771.86 148.00 788.94 C 144.47 789.02 117.81 789.02 68.00 788.94 Z" fill="url(#linearGradient-23)" fill-rule="nonzero" group-id="5" id="路径-47" node-id="143" stroke="none" target-height="17.596619" target-width="80" target-x="68" target-y="771.424"/></g><g node-id="413"><path d="M 787.85 299.47 C 793.87 300.03 799.45 302.91 803.43 307.50 C 804.67 308.88 805.71 310.43 806.53 312.10 L 806.59 312.22 L 806.43 311.39 C 808.33 311.94 809.15 315.35 809.20 319.50 L 809.21 319.68 C 813.80 318.42 817.08 332.52 807.08 332.89 C 806.72 333.83 806.33 334.63 805.91 335.24 C 803.39 338.94 800.63 343.67 796.71 346.52 L 796.74 356.86 L 776.31 357.15 L 776.39 345.01 C 774.75 343.66 773.31 342.00 772.19 340.08 C 770.69 337.81 769.46 335.40 768.50 332.88 L 768.90 332.86 C 756.98 333.70 760.98 317.29 766.01 319.88 C 766.00 319.33 766.01 318.77 766.02 318.22 C 766.50 313.65 768.35 309.34 771.33 305.86 C 775.45 301.10 781.63 298.71 787.85 299.47 Z M 807.04 314.57 L 807.05 314.73 C 807.08 315.55 807.13 316.36 807.54 317.10 L 807.04 314.57 Z M 806.59 312.22 L 807.04 314.57 L 807.04 314.42 C 807.02 313.91 806.99 313.40 806.86 312.90 L 806.77 312.60 L 806.59 312.22 Z" fill="#ebb0b0" fill-rule="nonzero" group-id="6" id="形状结合" node-id="145" stroke="none" target-height="58.445587" target-width="60.100952" target-x="756.9754" target-y="298.70758"/><path d="M 809.37 321.70 C 816.41 314.89 818.96 292.12 805.65 286.36 C 804.16 284.54 801.00 284.06 796.74 284.00 C 793.66 283.92 793.31 285.10 791.73 284.82 C 790.15 284.54 787.83 280.80 781.83 280.06 C 778.58 279.59 768.77 282.04 766.63 284.82 C 762.45 287.97 757.01 295.62 755.79 305.22 C 754.54 314.83 759.48 319.61 763.60 326.91 C 767.41 324.50 768.34 318.94 771.03 315.32 C 774.76 310.93 779.47 307.47 784.77 305.22 C 796.18 303.54 801.64 303.54 806.78 313.87 C 806.78 313.87 807.64 316.48 809.37 321.70 Z" fill="#131322" fill-rule="nonzero" group-id="6" id="路径" node-id="146" stroke="none" target-height="47.31842" target-width="64.42639" target-x="754.5379" target-y="279.5932"/><path d="M 776.77 348.54 C 780.01 350.55 783.81 353.95 787.45 354.02 C 790.21 354.18 793.97 350.20 796.37 348.54 C 807.43 349.06 827.48 354.72 844.46 367.74 C 844.46 418.08 839.46 427.05 832.97 455.38 C 832.80 456.62 814.44 488.88 810.92 490.70 C 797.14 497.75 786.50 496.43 771.41 494.64 C 768.47 494.28 751.68 479.53 749.48 477.35 C 747.71 475.58 738.92 456.21 736.92 450.88 C 734.92 445.54 731.88 435.90 731.65 430.13 C 731.03 414.76 730.00 388.72 729.78 369.44 C 742.44 350.82 763.07 352.38 776.77 348.54 Z" fill="url(#linearGradient-24)" fill-rule="nonzero" group-id="6" id="路径" node-id="147" stroke="none" target-height="149.20947" target-width="114.67578" target-x="729.7836" target-y="348.53696"/><path d="M 772.73 359.98 L 798.25 359.98 C 800.46 359.98 802.25 361.77 802.25 363.98 L 802.25 405.38 C 802.25 407.58 800.46 409.38 798.25 409.38 L 772.73 409.38 C 770.52 409.38 768.73 407.58 768.73 405.38 L 768.73 363.98 C 768.73 361.77 770.52 359.98 772.73 359.98 Z" fill="url(#linearGradient-25)" fill-rule="nonzero" group-id="6" id="矩形" node-id="148" stroke="none" target-height="49.398804" target-width="33.52063" target-x="768.72974" target-y="359.97675"/><g node-id="422"><path d="M 758.40 403.88 C 760.61 397.24 763.51 391.95 767.10 388.01 C 770.71 385.82 770.67 387.43 769.14 389.09 C 771.26 388.49 780.71 385.21 783.12 399.79 C 781.45 405.22 775.30 414.76 766.03 415.76 C 760.67 415.56 758.13 411.60 758.40 403.88 Z" fill="#efba9e" fill-rule="nonzero" group-id="6,15" id="路径-109" node-id="149" stroke="none" target-height="30.554688" target-width="24.989258" target-x="758.12976" target-y="385.2091"/></g><path d="M 726.34 369.92 C 734.14 360.44 741.68 359.55 748.95 367.24 C 757.21 375.19 753.76 426.48 748.95 458.18 C 737.74 471.91 723.71 463.63 719.95 452.28 C 711.78 417.32 713.91 389.86 726.34 369.92 Z" fill="url(#linearGradient-26)" fill-rule="nonzero" group-id="6" id="路径-2" node-id="150" stroke="none" target-height="112.36722" target-width="45.427856" target-x="711.7808" target-y="359.54517"/><path d="M 728.53 446.82 C 731.83 431.58 741.41 417.68 757.27 405.13 C 763.01 402.99 769.51 405.03 771.05 412.85 C 772.68 417.61 764.31 455.58 744.91 465.34 C 730.94 468.20 725.48 462.03 728.53 446.82 Z" fill="url(#linearGradient-27)" fill-rule="nonzero" group-id="6" id="路径-3" node-id="151" stroke="none" target-height="65.21448" target-width="47.199524" target-x="725.47876" target-y="402.9879"/><g node-id="423"><path d="M 814.14 403.88 C 811.93 397.24 809.03 391.95 805.44 388.01 C 801.83 385.82 801.87 387.43 803.40 389.09 C 801.29 388.49 791.83 385.21 789.42 399.79 C 791.09 405.22 797.24 414.76 806.51 415.76 C 811.87 415.56 814.41 411.60 814.14 403.88 Z" fill="#efba9e" fill-rule="nonzero" group-id="6,16" id="路径-109" node-id="152" stroke="none" target-height="30.554688" target-width="24.989258" target-x="789.4214" target-y="385.20914"/></g><g node-id="424"><path d="M 846.20 369.92 C 838.40 360.44 830.87 359.55 823.59 367.24 C 815.33 375.19 818.78 426.48 823.59 458.18 C 834.80 471.91 848.83 463.63 852.59 452.28 C 860.76 417.32 858.63 389.86 846.20 369.92 Z" fill="url(#linearGradient-28)" fill-rule="nonzero" group-id="6,17" id="路径-2" node-id="153" stroke="none" target-height="112.36722" target-width="45.427856" target-x="815.33167" target-y="359.54517"/></g><g node-id="425"><path d="M 844.01 446.82 C 840.71 431.58 831.13 417.68 815.27 405.13 C 809.53 402.99 803.03 405.03 801.49 412.85 C 799.86 417.61 808.23 455.58 827.63 465.34 C 841.60 468.20 847.06 462.03 844.01 446.82 Z" fill="url(#linearGradient-29)" fill-rule="nonzero" group-id="6,18" id="路径-3" node-id="154" stroke="none" target-height="65.21448" target-width="47.199524" target-x="799.8621" target-y="402.9879"/></g><path d="M 716.60 514.47 C 706.81 480.36 710.39 463.57 727.35 464.09 L 771.38 487.59 C 781.69 494.41 791.34 494.41 800.32 487.59 C 813.79 476.65 828.42 468.82 844.20 464.09 C 865.07 465.95 865.66 484.93 845.97 521.04 C 824.47 520.32 783.10 520.32 721.87 521.04 C 719.57 520.05 717.82 517.85 716.60 514.47 Z" fill="url(#linearGradient-30)" fill-rule="nonzero" group-id="6" id="路径-4" node-id="155" stroke="none" target-height="57.47119" target-width="158.85565" target-x="706.8061" target-y="463.56726"/><g node-id="426"><path d="M 754.91 592.32 C 759.67 592.11 761.98 590.88 764.39 592.27 C 766.81 593.66 769.38 599.95 768.04 603.20 C 766.34 607.32 762.95 614.23 762.04 616.20 C 761.12 618.16 754.51 631.52 749.79 632.17 C 745.08 632.82 743.15 625.49 745.82 616.49 C 748.50 607.50 753.43 594.89 753.43 594.89 L 754.91 592.32 Z" fill="#333333" fill-rule="nonzero" group-id="6,19" id="路径" node-id="156" stroke="none" target-height="41.944397" target-width="26.233948" target-x="743.14954" target-y="590.87933"/></g><g node-id="427"><path d="M 813.55 592.32 C 808.78 592.11 806.48 590.88 804.06 592.27 C 801.65 593.66 799.07 599.95 800.42 603.20 C 802.12 607.32 805.51 614.23 806.42 616.20 C 807.33 618.16 813.95 631.52 818.67 632.17 C 823.38 632.82 825.31 625.49 822.63 616.49 C 819.96 607.50 815.03 594.89 815.03 594.89 L 813.55 592.32 Z" fill="#333333" fill-rule="nonzero" group-id="6,20" id="路径备份-2" node-id="157" stroke="none" target-height="41.944397" target-width="26.233887" target-x="799.0748" target-y="590.87933"/></g><path d="M 704.70 491.68 C 704.70 491.68 699.26 463.83 718.65 457.58 C 738.04 451.32 746.13 463.91 752.17 474.63 C 754.07 484.87 760.47 523.32 771.38 589.98 C 764.52 596.35 755.67 598.63 744.82 596.81 C 740.39 582.18 704.70 491.68 704.70 491.68 Z" fill="url(#linearGradient4)" fill-rule="nonzero" group-id="6" id="路径-5" node-id="158" stroke="none" target-height="147.3053" target-width="72.115906" target-x="699.26135" target-y="451.3246"/><g node-id="428"><path d="M 863.30 491.68 C 863.30 491.68 868.74 463.83 849.35 457.58 C 829.96 451.32 821.87 463.91 815.83 474.63 C 813.93 484.87 807.53 523.32 796.62 589.98 C 803.48 596.35 812.33 598.63 823.18 596.81 C 827.61 582.18 863.30 491.68 863.30 491.68 Z" fill="url(#linearGradient-31)" fill-rule="nonzero" group-id="6,21" id="路径-5备份" node-id="159" stroke="none" target-height="147.3053" target-width="72.115906" target-x="796.62274" target-y="451.3246"/></g></g><path d="M 615.60 330.50 L 630.13 336.74 L 637.21 290.04 L 587.75 318.86 L 600.73 324.93 L 632.08 296.67 L 606.91 327.80 L 606.58 341.04 Z" fill="url(#linearGradient-32)" fill-rule="nonzero" id="飞机" node-id="160" stroke="none" target-height="51" target-width="49.45453" target-x="587.75323" target-y="290.04373"/><g node-id="414"><path d="M 592.44 360.82 C 584.98 389.57 568.85 404.57 544.06 405.82 C 526.68 403.05 525.35 393.98 524.38 389.57 C 525.83 383.40 528.65 376.12 540.94 379.51 C 548.13 384.28 549.17 402.46 543.38 412.67 C 541.64 415.77 530.82 443.98 483.43 432.37 C 470.07 428.98 410.87 382.51 368.50 438.57 C 362.62 446.72 357.73 456.24 353.82 467.10" fill="none" group-id="7" id="路径-25" node-id="161" stroke="url(#linearGradient-33)" stroke-dasharray="1.9999999 1.9999999" stroke-linecap="butt" stroke-width="0.99999994" target-height="106.27896" target-width="238.6239" target-x="353.8202" target-y="360.82034"/></g></svg>